<?xml version="1.0" encoding="UTF-8"?>
<svg width="20px" height="20px" viewBox="0 0 20 20" version="1.1" xmlns="http://www.w3.org/2000/svg" xmlns:xlink="http://www.w3.org/1999/xlink">
    <!-- Generator: Sketch 43.2 (39069) - http://www.bohemiancoding.com/sketch -->
    <title>google-icon</title>
    <desc>Created with Sketch.</desc>
    <defs></defs>
    <g id="Sign-in-Sign-up" stroke="none" stroke-width="1" fill="none" fill-rule="evenodd">
        <g id="00-signup-01-talent" transform="translate(-988.000000, -586.000000)">
            <g id="linkedin-btn" transform="translate(938.000000, 576.000000)">
                <g id="google-icon" transform="translate(48.000000, 8.000000)">
                    <g>
                        <rect id="bounds" fill="#4990E2" opacity="0" x="0" y="0" width="24" height="24"></rect>
                        <g id="Group" transform="translate(2.500000, 2.000000)">
                            <path d="M4.07727273,10 C4.07727273,9.36488889 4.18230682,8.756 4.36977273,8.18488889 L1.08845455,5.66844444 C0.448943182,6.97244444 0.0886363636,8.44177778 0.0886363636,10 C0.0886363636,11.5568889 0.4485,13.0253333 1.087125,14.3284444 L4.36667045,11.8071111 C4.18097727,11.2386667 4.07727273,10.632 4.07727273,10" id="Fill-1" fill="#FBBC05"></path>
                            <path d="M9.83863636,4.22222222 C11.2125,4.22222222 12.4534091,4.71111111 13.4284091,5.51111111 L16.2647727,2.66666667 C14.5363636,1.15555556 12.3204545,0.222222222 9.83863636,0.222222222 C5.98561364,0.222222222 2.67415909,2.43511111 1.08845455,5.66844444 L4.36977273,8.18488889 C5.12584091,5.88 7.28103409,4.22222222 9.83863636,4.22222222" id="Fill-2" fill="#EB4335"></path>
                            <path d="M9.83863636,15.7777778 C7.28103409,15.7777778 5.12584091,14.12 4.36977273,11.8151111 L1.08845455,14.3311111 C2.67415909,17.5648889 5.98561364,19.7777778 9.83863636,19.7777778 C12.21675,19.7777778 14.4871705,18.9297778 16.1912045,17.3408889 L13.0765227,14.9226667 C12.1976932,15.4786667 11.0910682,15.7777778 9.83863636,15.7777778" id="Fill-3" fill="#34A853"></path>
                            <path d="M19.1454545,10 C19.1454545,9.42222222 19.0568182,8.8 18.9238636,8.22222222 L9.83863636,8.22222222 L9.83863636,12 L15.0681818,12 C14.8067045,13.288 14.0949545,14.2782222 13.0765227,14.9226667 L16.1912045,17.3408889 C17.9812159,15.6724444 19.1454545,13.1871111 19.1454545,10" id="Fill-4" fill="#4285F4"></path>
                        </g>
                    </g>
                </g>
            </g>
        </g>
    </g>
</svg>