<?xml version="1.0" encoding="UTF-8"?>
<svg width="20px" height="18px" viewBox="0 0 20 18" version="1.1" xmlns="http://www.w3.org/2000/svg" xmlns:xlink="http://www.w3.org/1999/xlink">
    <!-- Generator: Sketch 43.2 (39069) - http://www.bohemiancoding.com/sketch  -->
    <title>linkedIn-icon</title>
    <desc>Created with Sketch.</desc>
    <defs></defs>
    <g id="Sign-in-Sign-up" stroke="none" stroke-width="1" fill="none" fill-rule="evenodd">
        <g id="00-signup-01-talent" transform="translate(-779.000000, -587.000000)">
            <g id="linkedin-btn" transform="translate(732.000000, 576.000000)">
                <g id="linkedIn-icon" transform="translate(45.000000, 8.000000)">
                    <g>
                        <rect id="bounds" fill="#4990E2" opacity="0" x="0" y="0" width="24" height="24"></rect>
                        <path d="M22,21 L17.5797272,21 L17.5797272,14.6722802 C17.5797272,13.0160082 16.8882879,11.8853173 15.3678269,11.8853173 C14.2048448,11.8853173 13.5580903,12.6483319 13.2570555,13.3836844 C13.1441675,13.6476276 13.1618062,14.0153038 13.1618062,14.3829801 L13.1618062,21 L8.7826905,21 C8.7826905,21 8.83913452,9.79106102 8.7826905,8.77217135 L13.1618062,8.77217135 L13.1618062,10.6912339 C13.420508,9.8521483 14.8198495,8.65460716 17.0529163,8.65460716 C19.8233772,8.65460716 22,10.4134597 22,14.2008708 L22,21 L22,21 Z M4.35418627,7.24268425 L4.32596425,7.24268425 C2.91486359,7.24268425 2,6.30793366 2,5.12307101 C2,3.91515656 2.94190969,3 4.38123236,3 C5.81937912,3 6.70366886,3.91285138 6.73189087,5.11961324 C6.73189087,6.30447589 5.81937912,7.24268425 4.35418627,7.24268425 L4.35418627,7.24268425 L4.35418627,7.24268425 Z M2.50446849,8.77217135 L6.40263405,8.77217135 L6.40263405,21 L2.50446849,21 L2.50446849,8.77217135 L2.50446849,8.77217135 Z" id="LinkedIn" fill="#007EBB"></path>
                    </g>
                </g>
            </g>
        </g>
    </g>
</svg>
